<?xml version="1.0" standalone="no"?>
<!DOCTYPE svg PUBLIC "-//W3C//DTD SVG 20010904//EN"
 "http://www.w3.org/TR/2001/REC-SVG-20010904/DTD/svg10.dtd">
<svg version="1.0" xmlns="http://www.w3.org/2000/svg"
 width="320.000000pt" height="320.000000pt" viewBox="0 0 320.000000 320.000000"
 preserveAspectRatio="xMidYMid meet">
<metadata>
Created by potrace 1.11, written by Peter Selinger 2001-2013
</metadata>
<g transform="translate(0.000000,320.000000) scale(0.100000,-0.100000)"
fill="#000000" stroke="none">
<path d="M2446 1863 c-4 -4 -17 -8 -29 -9 -12 -2 -33 -5 -47 -8 -14 -2 -68 -7
-120 -11 -52 -3 -113 -8 -135 -10 -22 -2 -65 -7 -96 -10 -31 -3 -67 -8 -79
-10 -12 -2 -61 -7 -108 -11 -48 -3 -89 -7 -92 -9 -3 -2 -41 -6 -85 -10 -161
-13 -185 -16 -280 -31 -16 -2 -55 -12 -85 -21 -64 -19 -78 -23 -105 -27 -11
-1 -29 -6 -40 -9 -11 -3 -31 -8 -45 -11 -14 -2 -101 -23 -195 -46 -213 -52
-181 -44 -315 -80 -63 -16 -128 -32 -144 -35 -16 -3 -32 -8 -36 -10 -3 -2 -64
-15 -135 -30 -134 -26 -221 -51 -242 -67 -20 -16 -4 -36 35 -43 89 -17 296
-37 507 -50 55 -3 134 -8 175 -11 41 -2 130 -7 198 -9 68 -3 128 -7 133 -10 5
-4 9 -1 9 5 0 8 6 8 20 0 15 -8 20 -8 20 2 0 8 3 9 8 3 8 -11 42 -12 177 -2
50 4 137 9 195 12 58 4 116 8 130 10 14 2 59 7 100 10 41 4 82 8 90 10 15 3
91 13 140 19 144 18 421 68 592 107 198 44 281 70 348 105 47 25 255 191 263
210 11 24 -13 38 -70 40 -281 12 -303 14 -478 30 -38 4 -83 7 -100 8 -16 0
-33 5 -37 11 -5 6 -8 5 -8 -4 0 -10 -3 -11 -13 -2 -8 6 -17 8 -21 4z"/>
</g>
</svg>
